<svg width="455" height="149" xmlns="http://www.w3.org/2000/svg">
 <!-- Created with Method Draw - http://github.com/duopixel/Method-Draw/ -->

 <g>
  <title>background</title>
  <rect x="-1" y="-1" width="457" height="151" id="canvas_background" fill="none"/>
  <g id="canvasGrid" display="none">
   <rect id="svg_1" width="100%" height="100%" x="0" y="0" stroke-width="0" fill="url(#gridpattern)"/>
  </g>
 </g>
 <g>
  <title>Layer 1</title>
  <path fill="none" stroke="#f71818" stroke-width="14.5" id="svg_4" d="m107.5,76.4375c0,3 -2.292908,2.292892 -3,3c-0.707092,0.707108 -4,2 -6,2c-2,0 -3.076126,0.38269 -4,0c-1.306564,-0.541199 -1.693436,-1.458801 -3,-2c-0.923874,-0.38269 -1.292892,-0.292892 -2,-1c-0.707108,-0.707108 -0.292892,-1.292892 -1,-2c-0.707108,-0.707108 -0.234634,-1.152237 -1,-3c-0.541199,-1.306564 -2,-3 -2,-6c0,-1 0.38269,-2.076126 0,-3c-0.541199,-1.306564 -1,-3 -1,-5c0,-2 0,-4 0,-6c0,-2 0,-3 0,-4c0,-1 0,-2 0,-4c0,-3 1.458801,-3.693436 2,-5c0.38269,-0.923882 0.292892,-1.292892 1,-2c0.707108,-0.707108 0,-2 1,-3c2,-2 2.458801,-2.693436 3,-4c0.38269,-0.923882 1.292892,-0.292892 2,-1c0.707108,-0.707108 1,-2 2,-2c1,0 1.292892,-0.292892 2,-1c0.707108,-0.707108 3,0 4,0c1,0 2,0 3,0c1,0 1.693451,0.458801 3,1c0.923889,0.382683 1,1 2,1c1,0 1.61731,1.076118 2,2c0.541199,1.306564 0.292908,2.292892 1,3c0.707092,0.707108 1.486267,1.823746 2,4c0.459503,1.946495 0,3 0,4c0,2 0.679626,4.025826 1,6c0.506531,3.121445 1,4 1,6c0,1 0,4 0,6c0,3 0,4 0,6c0,1 0,3 0,4c0,2 0,3 0,4c0,1 0,2 0,3c0,2 -0.458801,2.693436 -1,4c-0.38269,0.923874 -0.458801,1.693436 -1,3c-0.38269,0.923874 0,2 0,3c0,2 -1,3 -1,4c0,2 -1,3 -1,4c0,1 0.707092,2.292892 0,3c-0.707092,0.707108 -0.61731,2.076126 -1,3c-0.541199,1.306564 -0.474274,2.149353 -1,3c-1.175568,1.902115 -1.61731,3.076126 -2,4c-0.541199,1.306564 -1,2 -2,3c-1,1 -0.292908,2.292892 -1,3c-0.707092,0.707108 -1.458801,0.693436 -2,2c-0.38269,0.923874 -2.292908,1.292892 -3,2c-0.707108,0.707108 -0.097885,1.824432 -2,3c-0.850647,0.525726 -1.292892,0.292892 -2,1c-1.414215,1.414215 -3.012909,0.839813 -4,1c-3.121445,0.506546 -4.823746,1.486252 -7,2c-0.973251,0.229752 -2,0 -3,0c-1,0 -2.076126,-0.61731 -3,-1c-1.306564,-0.541199 -1,-2 -2,-2c-1,0 -1.458801,-0.693436 -2,-2c-0.38269,-0.923874 -1.292892,-0.292892 -2,-1c-0.707108,-0.707108 -1,-1 -1,-2c0,-1 -1,-1 -1,-2l0,-1l0,-2l0,-1"/>
  <path fill="none" stroke="#ffffff" stroke-width="14.5" id="svg_5" d="m165.5,71.4375c1,-2 0.881897,-4.072784 4,-9c1.92807,-3.04673 4.924835,-7.081284 6,-8c10.340515,-8.835922 10.878571,-9.493462 14,-10c0.987091,-0.160179 2,0 4,0c2,0 3,0 4,0c1,0 1.693451,0.458801 3,1c0.923889,0.382683 1.823761,2.486259 4,3c0.973236,0.229752 1.418854,1.418861 3,3c1.581146,1.581139 3.458801,3.693436 4,5c0.38269,0.923882 1.486267,2.823746 2,5c0.68927,2.919746 1,4 1,5c0,3 0,5 0,7c0,2 0.459503,4.053497 0,6c-0.513733,2.176254 -1.770233,3.026749 -2,4c-0.513733,2.176254 -1.714111,4.21167 -4,7c-0.896606,1.093674 -1.693451,3.458801 -3,4c-0.923889,0.38269 -1.292908,0.292892 -2,1c-0.707092,0.707108 -1,1 -3,2c-2,1 -3,1 -5,2c-2,1 -4.823761,1.486252 -7,2c-0.973236,0.229752 -2,0 -3,0c-1,0 -4.152252,-3.234634 -6,-4c-3.919678,-1.623581 -4.292908,-3.292892 -5,-4c-0.707092,-0.707108 -1,-1 -1,-2c0,-1 -2,-2 -3,-4c-1,-2 -1,-3 -1,-4c0,-1 0,-2 0,-3c0,-1 -1,-2 -1,-3c0,-1 -1,-3 -1,-4l0,-1l0,-1l0,-1"/>
 </g>
</svg>