<svg width="455" height="149" xmlns="http://www.w3.org/2000/svg">
 <!-- Created with Method Draw - http://github.com/duopixel/Method-Draw/ -->

 <g>
  <title>background</title>
  <rect fill="none" id="canvas_background" height="151" width="457" y="-1" x="-1"/>
  <g display="none" id="canvasGrid">
   <rect fill="url(#gridpattern)" stroke-width="0" y="0" x="0" height="100%" width="100%" id="svg_1"/>
  </g>
 </g>
 <g>
  <title>Layer 1</title>
  <path d="m81.5,44.4375c-1,0 -2.504242,-0.964485 -7,2c-7.083862,4.671074 -16,14 -17,15c-1,1 -2,2 -3,4c-2,4 -3.91761,5.386871 -5,8c-1.148048,2.771637 0,6 0,8c0,3 -0.320366,4.025818 0,6c0.506538,3.121445 2.173096,5.852737 3,7c1.307449,1.813995 3,5 4,6c1,1 2.026749,0.770248 3,1c2.176254,0.513748 4,1 5,1c1,0 2,0 3,0c1,0 2,0 6,0c2,0 3,0 4,0c1,0 1.693436,-0.458801 3,-1c0.923882,-0.38269 2.076118,0.38269 3,0c1.306564,-0.541199 2,-1 3,-2l1,0l1,0l1,0" id="svg_2" stroke-width="14.5" stroke="#f71818" fill="none"/>
  <path d="m127.5,103.4375c2,-13 2,-16 3,-18c1,-2 1,-4 2,-6c1,-2 0.851944,-4.228363 2,-7c1.082397,-2.613129 2,-4 3,-6c1,-2 1.486252,-2.823746 2,-5c0.229752,-0.973251 1.458801,-2.693436 2,-4c0.765366,-1.847755 0.496231,-2.907784 1,-7c0.122177,-0.992508 0.61731,-3.076118 1,-4c0.541199,-1.306564 1.173096,-2.85273 2,-4c1.307449,-1.813995 2.292892,-4.292892 3,-5c0.707108,-0.707108 0.540497,-0.946495 1,1c0.513748,2.176254 1,4 1,7c0,3 0,4 0,5c0,4 0,7 0,8c0,3 0,9 0,13c0,4 -0.919006,7.10701 0,11c0.513748,2.176254 1,5 1,7c0,1 -0.414215,3.585785 1,5c0.707108,0.707108 1.770248,2.026749 2,3c0.513748,2.176254 2,2 3,3c1,1 1.61731,1.076126 2,2c0.541199,1.306564 2,1 3,1c1,0 2.076126,0.38269 3,0c1.306564,-0.541199 2.71022,-2.042908 3,-3c1.04483,-3.450851 4.343155,-5.876053 6,-11c1.268555,-3.923111 1.16124,-7.796265 5,-11c1.716751,-1.432755 3.881897,-5.072784 7,-10c1.92807,-3.04673 0.968552,-4.412071 3,-8c0.696777,-1.230652 2.458801,-1.693436 3,-3c0.765366,-1.847755 0.292892,-3.292892 1,-4c0.707108,-0.707108 1,-1 1,-2c0,-1 0,-2 0,-3l-1,0" id="svg_3" stroke-width="14.5" stroke="#007f00" fill="none"/>
  <path d="m272.5,76.4375c0,3 -2.292908,2.292892 -3,3c-0.707092,0.707108 -4,2 -6,2c-2,0 -3.076126,0.38269 -4,0c-1.306564,-0.541199 -1.693436,-1.458801 -3,-2c-0.923874,-0.38269 -1.292892,-0.292892 -2,-1c-0.707108,-0.707108 -0.292892,-1.292892 -1,-2c-0.707108,-0.707108 -0.234634,-1.152237 -1,-3c-0.541199,-1.306564 -2,-3 -2,-6c0,-1 0.38269,-2.076126 0,-3c-0.541199,-1.306564 -1,-3 -1,-5c0,-2 0,-4 0,-6c0,-2 0,-3 0,-4c0,-1 0,-2 0,-4c0,-3 1.458801,-3.693436 2,-5c0.38269,-0.923882 0.292892,-1.292892 1,-2c0.707108,-0.707108 0,-2 1,-3c2,-2 2.458801,-2.693436 3,-4c0.38269,-0.923882 1.292892,-0.292892 2,-1c0.707108,-0.707108 1,-2 2,-2c1,0 1.292892,-0.292892 2,-1c0.707108,-0.707108 3,0 4,0c1,0 2,0 3,0c1,0 1.693451,0.458801 3,1c0.923889,0.382683 1,1 2,1c1,0 1.61731,1.076118 2,2c0.541199,1.306564 0.292908,2.292892 1,3c0.707092,0.707108 1.486267,1.823746 2,4c0.459503,1.946495 0,3 0,4c0,2 0.679626,4.025826 1,6c0.506531,3.121445 1,4 1,6c0,1 0,4 0,6c0,3 0,4 0,6c0,1 0,3 0,4c0,2 0,3 0,4c0,1 0,2 0,3c0,2 -0.458801,2.693436 -1,4c-0.38269,0.923874 -0.458801,1.693436 -1,3c-0.38269,0.923874 0,2 0,3c0,2 -1,3 -1,4c0,2 -1,3 -1,4c0,1 0.707092,2.292892 0,3c-0.707092,0.707108 -0.61731,2.076126 -1,3c-0.541199,1.306564 -0.474274,2.149353 -1,3c-1.175568,1.902115 -1.61731,3.076126 -2,4c-0.541199,1.306564 -1,2 -2,3c-1,1 -0.292908,2.292892 -1,3c-0.707092,0.707108 -1.458801,0.693436 -2,2c-0.38269,0.923874 -2.292908,1.292892 -3,2c-0.707108,0.707108 -0.097885,1.824432 -2,3c-0.850647,0.525726 -1.292892,0.292892 -2,1c-1.414215,1.414215 -3.012909,0.839813 -4,1c-3.121445,0.506546 -4.823746,1.486252 -7,2c-0.973251,0.229752 -2,0 -3,0c-1,0 -2.076126,-0.61731 -3,-1c-1.306564,-0.541199 -1,-2 -2,-2c-1,0 -1.458801,-0.693436 -2,-2c-0.38269,-0.923874 -1.292892,-0.292892 -2,-1c-0.707108,-0.707108 -1,-1 -1,-2c0,-1 -1,-1 -1,-2l0,-1l0,-2l0,-1" id="svg_4" stroke-width="14.5" stroke="#f71818" fill="none"/>
  <path d="m329.5,71.4375c1,-2 0.881897,-4.072784 4,-9c1.92807,-3.04673 4.924835,-7.081284 6,-8c10.340515,-8.835922 10.878571,-9.493462 14,-10c0.987091,-0.160179 2,0 4,0c2,0 3,0 4,0c1,0 1.693451,0.458801 3,1c0.923889,0.382683 1.823761,2.486259 4,3c0.973236,0.229752 1.418854,1.418861 3,3c1.581146,1.581139 3.458801,3.693436 4,5c0.38269,0.923882 1.486267,2.823746 2,5c0.68927,2.919746 1,4 1,5c0,3 0,5 0,7c0,2 0.459503,4.053497 0,6c-0.513733,2.176254 -1.770233,3.026749 -2,4c-0.513733,2.176254 -1.714111,4.21167 -4,7c-0.896606,1.093674 -1.693451,3.458801 -3,4c-0.923889,0.38269 -1.292908,0.292892 -2,1c-0.707092,0.707108 -1,1 -3,2c-2,1 -3,1 -5,2c-2,1 -4.823761,1.486252 -7,2c-0.973236,0.229752 -2,0 -3,0c-1,0 -4.152252,-3.234634 -6,-4c-3.919678,-1.623581 -4.292908,-3.292892 -5,-4c-0.707092,-0.707108 -1,-1 -1,-2c0,-1 -2,-2 -3,-4c-1,-2 -1,-3 -1,-4c0,-1 0,-2 0,-3c0,-1 -1,-2 -1,-3c0,-1 -1,-3 -1,-4l0,-1l0,-1l0,-1" id="svg_5" stroke-width="14.5" stroke="#007f00" fill="none"/>
 </g>
</svg>