<svg width="32" height="32" xmlns="http://www.w3.org/2000/svg">
 <!-- Created with Method Draw - http://github.com/duopixel/Method-Draw/ -->

 <g>
  <title>background</title>
  <rect fill="none" id="canvas_background" height="34" width="34" y="-1" x="-1"/>
  <g display="none" id="canvasGrid">
   <rect fill="url(#gridpattern)" stroke-width="0" y="1" x="1" height="74" width="413" id="svg_1"/>
  </g>
 </g>
 <g>
  <title>Layer 1</title>
  <path stroke="#f71818" d="m19.983452,16.31935c0,0.784923 -0.832243,0.599915 -1.088892,0.784923c-0.256649,0.185009 -1.451857,0.523282 -2.177785,0.523282c-0.725928,0 -1.116523,0.100127 -1.451857,0c-0.474236,-0.1416 -0.614657,-0.381682 -1.088892,-0.523282c-0.335333,-0.100127 -0.469273,-0.076633 -0.725928,-0.261641c-0.256655,-0.185009 -0.106309,-0.338274 -0.362964,-0.523282c-0.256655,-0.185009 -0.085164,-0.301473 -0.362964,-0.784923c-0.196436,-0.341851 -0.725928,-0.784923 -0.725928,-1.569847c0,-0.261641 0.138903,-0.5432 0,-0.784923c-0.196436,-0.341851 -0.362964,-0.784923 -0.362964,-1.308205c0,-0.523282 0,-1.046564 0,-1.569847c0,-0.523282 0,-0.784923 0,-1.046564c0,-0.261641 0,-0.523282 0,-1.046564c0,-0.784923 0.529492,-0.966355 0.725928,-1.308205c0.138903,-0.241725 0.106309,-0.338274 0.362964,-0.523282c0.256655,-0.185009 0,-0.523282 0.362964,-0.784923c0.725928,-0.523282 0.892457,-0.704714 1.088892,-1.046564c0.138903,-0.241725 0.469273,-0.076633 0.725928,-0.261641c0.256655,-0.185009 0.362964,-0.523282 0.725928,-0.523282c0.362964,0 0.469273,-0.076633 0.725928,-0.261641c0.256655,-0.185009 1.088892,0 1.451857,0c0.362964,0 0.725928,0 1.088892,0c0.362964,0 0.614662,0.120041 1.088892,0.261641c0.335339,0.100126 0.362964,0.261641 0.725928,0.261641c0.362964,0 0.587026,0.281557 0.725928,0.523282c0.196436,0.341851 0.106315,0.599915 0.362964,0.784923c0.256649,0.185009 0.539462,0.477167 0.725928,1.046564c0.166783,0.509283 0,0.784923 0,1.046564c0,0.523282 0.24668,1.053322 0.362964,1.569847c0.183853,0.816698 0.362964,1.046564 0.362964,1.569847c0,0.261641 0,1.046564 0,1.569847c0,0.784923 0,1.046564 0,1.569847c0,0.261641 0,0.784923 0,1.046564c0,0.523282 0,0.784923 0,1.046564c0,0.261641 0,0.523282 0,0.784923c0,0.523282 -0.166528,0.704714 -0.362964,1.046564c-0.138903,0.241723 -0.166528,0.443072 -0.362964,0.784923c-0.138903,0.241723 0,0.523282 0,0.784923c0,0.523282 -0.362964,0.784923 -0.362964,1.046564c0,0.523282 -0.362964,0.784923 -0.362964,1.046564c0,0.261641 0.256649,0.599915 0,0.784923c-0.256649,0.185009 -0.224061,0.5432 -0.362964,0.784923c-0.196436,0.341851 -0.172144,0.562359 -0.362964,0.784923c-0.426689,0.497671 -0.587026,0.804841 -0.725928,1.046564c-0.196436,0.341851 -0.362964,0.523282 -0.725928,0.784923c-0.362964,0.261641 -0.106315,0.599915 -0.362964,0.784923c-0.256649,0.185009 -0.529492,0.181431 -0.725928,0.523282c-0.138903,0.241723 -0.832243,0.338274 -1.088892,0.523282c-0.256655,0.185009 -0.035529,0.477346 -0.725928,0.784923c-0.308754,0.137552 -0.469273,0.076633 -0.725928,0.261641c-0.513309,0.370017 -1.093578,0.21973 -1.451857,0.261641c-1.132973,0.132533 -1.750847,0.388865 -2.540749,0.523282c-0.353255,0.060113 -0.725928,0 -1.088892,0c-0.362964,0 -0.753559,-0.161514 -1.088892,-0.261641c-0.474236,-0.1416 -0.362964,-0.523282 -0.725928,-0.523282c-0.362964,0 -0.529492,-0.181431 -0.725928,-0.523282c-0.138903,-0.241723 -0.469273,-0.076633 -0.725928,-0.261641c-0.256655,-0.185009 -0.362964,-0.261641 -0.362964,-0.523282c0,-0.261641 -0.362964,-0.261641 -0.362964,-0.523282l0,-0.261641l0,-0.523282l0,-0.261641" id="svg_4" stroke-width="5.5" fill="none"/>
 </g>
</svg>